REM DIRINDEX 1\2,1\3,1\4,1\5\6,1\5\7,1\8
REM DIRNAME folder01,folder02,folder03,folder04,folder05,folder06,folder07,folder08
TITLE ""
FILE "088 【088】Unit5 (0997 deduct_1008 ignition).mp3" MP3
  TRACK 01 AUDIO
    TITLE "0:"
    INDEX 01 00:00:00
  TRACK 02 AUDIO
    TITLE "2:cjc115_3432"
    INDEX 01 00:00:03
  TRACK 03 AUDIO
    TITLE "0:"
    INDEX 01 00:01:24
  TRACK 04 AUDIO
    TITLE "3:cjc115_3433"
    INDEX 01 00:01:34
  TRACK 05 AUDIO
    TITLE "0:"
    INDEX 01 00:03:53
  TRACK 06 AUDIO
    TITLE "4:cjc115_3434"
    INDEX 01 00:03:63
  TRACK 07 AUDIO
    TITLE "0:"
    INDEX 01 00:07:23
  TRACK 08 AUDIO
    TITLE "2:cjc115_3435"
    INDEX 01 00:08:32
  TRACK 09 AUDIO
    TITLE "0:"
    INDEX 01 00:09:53
  TRACK 10 AUDIO
    TITLE "3:cjc115_3436"
    INDEX 01 00:09:63
  TRACK 11 AUDIO
    TITLE "0:"
    INDEX 01 00:11:64
  TRACK 12 AUDIO
    TITLE "4:cjc115_3437"
    INDEX 01 00:11:70
  TRACK 13 AUDIO
    TITLE "0:"
    INDEX 01 00:15:27
  TRACK 14 AUDIO
    TITLE "2:cjc115_3438"
    INDEX 01 00:16:38
  TRACK 15 AUDIO
    TITLE "0:"
    INDEX 01 00:17:70
  TRACK 16 AUDIO
    TITLE "3:cjc115_3439"
    INDEX 01 00:18:05
  TRACK 17 AUDIO
    TITLE "0:"
    INDEX 01 00:19:58
  TRACK 18 AUDIO
    TITLE "4:cjc115_3440"
    INDEX 01 00:19:67
  TRACK 19 AUDIO
    TITLE "0:"
    INDEX 01 00:23:42
  TRACK 20 AUDIO
    TITLE "2:cjc115_3441"
    INDEX 01 00:24:49
  TRACK 21 AUDIO
    TITLE "0:"
    INDEX 01 00:26:01
  TRACK 22 AUDIO
    TITLE "3:cjc115_3442"
    INDEX 01 00:26:07
  TRACK 23 AUDIO
    TITLE "0:"
    INDEX 01 00:27:39
  TRACK 24 AUDIO
    TITLE "4:cjc115_3443"
    INDEX 01 00:27:49
  TRACK 25 AUDIO
    TITLE "0:"
    INDEX 01 00:31:51
  TRACK 26 AUDIO
    TITLE "2:cjc115_3444"
    INDEX 01 00:32:60
  TRACK 27 AUDIO
    TITLE "0:"
    INDEX 01 00:33:60
  TRACK 28 AUDIO
    TITLE "3:cjc115_3445"
    INDEX 01 00:33:68
  TRACK 29 AUDIO
    TITLE "0:"
    INDEX 01 00:36:05
  TRACK 30 AUDIO
    TITLE "4:cjc115_3446"
    INDEX 01 00:36:07
  TRACK 31 AUDIO
    TITLE "0:"
    INDEX 01 00:40:36
  TRACK 32 AUDIO
    TITLE "2:cjc115_3447"
    INDEX 01 00:41:47
  TRACK 33 AUDIO
    TITLE "0:"
    INDEX 01 00:42:66
  TRACK 34 AUDIO
    TITLE "3:cjc115_3448"
    INDEX 01 00:42:74
  TRACK 35 AUDIO
    TITLE "0:"
    INDEX 01 00:44:65
  TRACK 36 AUDIO
    TITLE "4:cjc115_3449"
    INDEX 01 00:44:67
  TRACK 37 AUDIO
    TITLE "0:"
    INDEX 01 00:48:49
  TRACK 38 AUDIO
    TITLE "2:cjc115_3450"
    INDEX 01 00:49:57
  TRACK 39 AUDIO
    TITLE "0:"
    INDEX 01 00:51:09
  TRACK 40 AUDIO
    TITLE "3:cjc115_3451"
    INDEX 01 00:51:20
  TRACK 41 AUDIO
    TITLE "0:"
    INDEX 01 00:52:61
  TRACK 42 AUDIO
    TITLE "4:cjc115_3452"
    INDEX 01 00:52:69
  TRACK 43 AUDIO
    TITLE "0:"
    INDEX 01 00:56:18
  TRACK 44 AUDIO
    TITLE "2:cjc115_3453"
    INDEX 01 00:57:27
  TRACK 45 AUDIO
    TITLE "0:"
    INDEX 01 00:58:58
  TRACK 46 AUDIO
    TITLE "3:cjc115_3454"
    INDEX 01 00:58:66
  TRACK 47 AUDIO
    TITLE "0:"
    INDEX 01 01:01:72
  TRACK 48 AUDIO
    TITLE "4:cjc115_3455"
    INDEX 01 01:02:05
  TRACK 49 AUDIO
    TITLE "0:"
    INDEX 01 01:06:20
  TRACK 50 AUDIO
    TITLE "2:cjc115_3456"
    INDEX 01 01:07:29
  TRACK 51 AUDIO
    TITLE "0:"
    INDEX 01 01:08:50
  TRACK 52 AUDIO
    TITLE "3:cjc115_3457"
    INDEX 01 01:08:56
  TRACK 53 AUDIO
    TITLE "0:"
    INDEX 01 01:11:13
  TRACK 54 AUDIO
    TITLE "4:cjc115_3458"
    INDEX 01 01:11:21
  TRACK 55 AUDIO
    TITLE "0:"
    INDEX 01 01:13:57
  TRACK 56 AUDIO
    TITLE "2:cjc115_3459"
    INDEX 01 01:14:66
  TRACK 57 AUDIO
    TITLE "0:"
    INDEX 01 01:16:28
  TRACK 58 AUDIO
    TITLE "3:cjc115_3460"
    INDEX 01 01:16:38
  TRACK 59 AUDIO
    TITLE "0:"
    INDEX 01 01:19:30
  TRACK 60 AUDIO
    TITLE "4:cjc115_3461"
    INDEX 01 01:19:40
  TRACK 61 AUDIO
    TITLE "0:"
    INDEX 01 01:24:32
  TRACK 62 AUDIO
    TITLE "2:cjc115_3462"
    INDEX 01 01:25:45
  TRACK 63 AUDIO
    TITLE "0:"
    INDEX 01 01:26:70
  TRACK 64 AUDIO
    TITLE "3:cjc115_3463"
    INDEX 01 01:27:04
  TRACK 65 AUDIO
    TITLE "0:"
    INDEX 01 01:28:35
  TRACK 66 AUDIO
    TITLE "4:cjc115_3464"
    INDEX 01 01:28:41
  TRACK 67 AUDIO
    TITLE "0:"
    INDEX 01 01:31:36
  TRACK 68 AUDIO
    TITLE "2:cjc115_3465"
    INDEX 01 01:32:47
  TRACK 69 AUDIO
    TITLE "0:"
    INDEX 01 01:33:68
  TRACK 70 AUDIO
    TITLE "3:cjc115_3466"
    INDEX 01 01:34:03
  TRACK 71 AUDIO
    TITLE "0:"
    INDEX 01 01:36:01
  TRACK 72 AUDIO
    TITLE "4:cjc115_3467"
    INDEX 01 01:36:09
  TRACK 73 AUDIO
    TITLE "0:"
    INDEX 01 01:40:33
